<?xml version="1.0" encoding="utf-8"?>
<!-- Generator: Adobe Illustrator 18.0.0, SVG Export Plug-In . SVG Version: 6.00 Build 0)  -->
<!DOCTYPE svg PUBLIC "-//W3C//DTD SVG 1.1//EN" "http://www.w3.org/Graphics/SVG/1.1/DTD/svg11.dtd">
<svg version="1.1" id="图层_1" xmlns="http://www.w3.org/2000/svg" xmlns:xlink="http://www.w3.org/1999/xlink" x="0px" y="0px"
	 viewBox="0 0 200 200" enable-background="new 0 0 200 200" xml:space="preserve">
<g>
	<g transform="scale(0.1953125, 0.1953125)">
		<path fill="#FFFFFF" d="M254.9,854.5V498.2H294v-44.1H94.2v40.2h39.1v360.3L254.9,854.5L254.9,854.5z M31.7,414.9
			c0,0,966.1,0,967.6,0c23.3-10.2,22.3-32.1,0.4-46.6C977.9,353.7,514.7,19.3,514.7,19.3S55,353.7,31.7,368.3
			C8.4,382.9,6.9,404.7,31.7,414.9z M514.7,184.5c38.6,0,69.9,31.3,69.9,69.9c0,38.6-31.3,69.9-69.9,69.9c-38.6,0-70-31.3-70-69.9
			C444.7,215.8,476,184.5,514.7,184.5z M55.8,934.5h919.4v-39.1H55.8C55.8,895.4,55.8,934.5,55.8,934.5z M15.9,1014.5h999.2v-36.6
			l-999.2,0C15.9,977.8,15.9,1014.5,15.9,1014.5z M576.3,854.5V495.7h39.1v-39.1H415.6v37.7h39.1v360.3L576.3,854.5L576.3,854.5z
			 M895.2,854.5V495.7h39.1v-39.1H734.5v37.7h39.1v360.3L895.2,854.5L895.2,854.5z"/>
	</g>
</g>
</svg>
