<?xml version="1.0" standalone="no"?><!DOCTYPE svg PUBLIC "-//W3C//DTD SVG 1.1//EN" "http://www.w3.org/Graphics/SVG/1.1/DTD/svg11.dtd"><svg class="icon" style="" viewBox="0 0 1024 1024" version="1.1" xmlns="http://www.w3.org/2000/svg" p-id="1489" xmlns:xlink="http://www.w3.org/1999/xlink" width="200" height="200"><defs><style type="text/css"><![CDATA[

]]></style></defs><path d="M455.168 162.304l207.36 0 0 35.84-207.36 0 0-35.84ZM455.168 245.248l207.36 0 0 35.84-207.36 0 0-35.84ZM455.168 336.896l207.36 0 0 35.84-207.36 0 0-35.84ZM238.08 522.752l207.36 0 0 35.84-207.36 0 0-35.84ZM238.08 612.352l207.36 0 0 35.84-207.36 0 0-35.84ZM234.496 438.272l428.032 0 0 35.84-428.032 0 0-35.84ZM904.704 519.168l-93.696-93.696c-6.656-6.656-18.432-6.656-25.088 0l-12.8 12.8L773.12 142.336c0-47.104-38.4-85.504-85.504-85.504L229.376 56.832 114.176 358.4l0 459.776c0 47.104 38.4 85.504 85.504 85.504l178.176 0-13.312 39.424c-2.048 6.656-0.512 13.824 4.096 18.432 3.584 3.584 8.192 5.12 12.8 5.12 2.048 0 4.096-0.512 5.632-1.024l141.824-48.128c2.56-1.024 5.12-2.56 7.168-4.096l9.728-9.728 141.824 0c47.104 0 85.504-38.4 85.504-85.504l0-141.824 132.096-132.096C911.872 537.6 911.872 525.824 904.704 519.168zM556.544 841.728l-68.096-68.096 241.152-241.152 68.096 68.096L556.544 841.728zM276.48 139.776c8.704 9.728 13.312 22.528 12.8 35.84-0.512 13.312-6.144 25.6-16.384 34.304l-97.28 88.576 72.704-189.44L276.48 139.776zM199.168 867.84c-27.136 0-49.664-22.016-49.664-49.664L149.504 369.664 296.96 236.032c34.816-31.744 37.376-85.504 5.632-120.32l-20.48-22.528 404.992 0c27.136 0 49.664 22.016 49.664 49.664l0 331.776-320.512 320.512c-2.048 2.048-3.584 4.096-4.096 7.168l-22.528 66.048L199.168 868.352zM513.024 885.248l-103.424 34.816 34.816-103.424 17.92-17.92 68.096 68.096L513.024 885.248zM736.768 818.176c0 27.136-22.016 49.664-49.664 49.664l-105.984 0 155.648-155.648L736.768 818.176zM823.296 574.976 755.2 506.88l43.52-43.52 68.096 68.096L823.296 574.976z" p-id="1490" fill="#ffffff"></path></svg>