<?xml version="1.0" encoding="utf-8"?>
<!-- Generator: Adobe Illustrator 18.0.0, SVG Export Plug-In . SVG Version: 6.00 Build 0)  -->
<!DOCTYPE svg PUBLIC "-//W3C//DTD SVG 1.1//EN" "http://www.w3.org/Graphics/SVG/1.1/DTD/svg11.dtd">
<svg version="1.1" id="图层_1" xmlns="http://www.w3.org/2000/svg" xmlns:xlink="http://www.w3.org/1999/xlink" x="0px" y="0px"
	 viewBox="-43.5 213.5 220 133" enable-background="new -43.5 213.5 220 133" xml:space="preserve">
<circle fill="#50B3E5" cx="20" cy="280" r="62.5"/>
<path fill="#FFFFFF" d="M-6,247.9v-14.2h-5v14.2H-6 M-6,327.1V255h-5v72.1H-6 M31.9,326.4h8.8c5.1,0,9.3-1.9,9.3-9.1v-73.8
	c0-7.3-4.2-9.1-9.3-9.1H1.3v5h39.4c2.3,0,4.3,0.8,4.3,4.1v73.8c0,3.3-2,4.1-4.3,4.1h-8.8V326.4 M28.1,308.4c4.4,0,7.9-0.8,7.9-7.2
	v-35.7c0-6.4-3.6-7.2-8-7.2H11c-4.4,0-8,0.8-8,7.2v35.7c0,6.4,3.6,7.2,7.9,7.2H28.1 M11,303.4c-1.6,0-3-0.3-3-2.2v-35.7
	c0-1.9,1.4-2.2,3-2.2H28c1.6,0,3,0.3,3,2.2v35.7c0,1.9-1.4,2.2-3,2.2H11z"/>
<path fill="#50B3E5" d="M124.9,258h21.7c-2.4,23.8-8.2,40.7-22.6,52.2l3.3,3.9c14.1-11.3,20.3-27.1,23.3-48.6l21,49.2l4.7-2.1
	L152.8,258H175v-5h-23.2c0.7-5.4,1-11.3,1-17l-5-0.2c0,6.1-0.3,11.8-0.7,17.2h-22.2V258 M176.5,320h-53.2c-2.4,0-4.5-0.9-4.5-4
	v-56.3h-5v56.3c0,7,4.4,8.9,9.5,8.9h53.2V320 M113.8,236v17h5v-17H113.8z"/>
</svg>
