<?xml version="1.0" encoding="utf-8"?>
<!-- Generator: Adobe Illustrator 18.0.0, SVG Export Plug-In . SVG Version: 6.00 Build 0)  -->
<!DOCTYPE svg PUBLIC "-//W3C//DTD SVG 1.1//EN" "http://www.w3.org/Graphics/SVG/1.1/DTD/svg11.dtd">
<svg version="1.1" id="图层_1" xmlns="http://www.w3.org/2000/svg" xmlns:xlink="http://www.w3.org/1999/xlink" x="0px" y="0px"
	 viewBox="0 0 200 200" enable-background="new 0 0 200 200" xml:space="preserve">
<g>
	<g transform="scale(0.1953125, 0.1953125)">
		<path fill="#FFFFFF" d="M880.3,890.6C856,762.8,841.9,634,840.2,503.9c-1.7-129.5,7.8-258.3,23.8-386.7
			c3.2-25.8-2.3-32.6-28.4-33.9c-33.7-1.7-67.5-3-101.2-4.3c-131.5-5.2-263-10.2-394.5-15.6c-11.5-0.5-19.8,3.3-27.8,11.3
			c-48.4,48.8-97,97.4-145.7,145.9c-7.4,7.4-11.4,15.3-12.5,25.8c-9.4,86.4-13.4,173-12.8,264.2c-0.6,66.7,2.9,137.7,7.8,208.6
			c5,72.6,12.4,144.9,22.9,217c2.4,16.5,11.2,23.3,27.3,22.2c5.2-0.3,10.5-0.4,15.7-0.7c213.4-11.4,426.8-22.9,640.2-34.3
			C877.3,922.2,884.6,912.9,880.3,890.6z M313.7,138.1c1.1,26.3,2.3,53.4,3.4,80.5c0.2,5.2-2.7,7.2-7.6,7c-27.1-1-54.1-2.1-80.5-3.1
			C257.6,194,285.3,166.4,313.7,138.1z M824.3,882.7c-56.4,2.9-112.8,6.3-169.1,9.3c-143,7.7-286,15-429,23.2
			c-12.6,0.7-15.5-2.8-17-14.2c-19.7-150.4-28.7-301.3-24.4-452.9c1.6-57,4.6-114,8.6-170.9c0.8-11.2,3.4-14.8,15.2-14
			c40.1,2.6,80.2,4,120.4,5.9c25.2,1.2,32.9-6.2,31.7-31c-1.8-39-3.4-78-6.1-116.9c-0.9-12.8,2.8-15.3,15.1-14.7
			c72.1,3.5,144.3,6.1,216.4,9c72.1,2.7,144.3,5.8,216.5,7.6c15,0.4,18.3,4.8,16.5,19.2c-14.6,120.9-22.6,242.2-20.7,364.1
			c1.8,118.3,12.9,235.8,33.8,352.4c0.7,4,0.5,8.3,1.9,12C837.6,880.6,832.8,882.2,824.3,882.7z M304.3,720.6c1.7-0.1,3.5,0,5.2-0.1
			c65.7-2.8,131.4-5.5,222.2-9.4c28.4-1,81.9-2.9,135.4-5c16.3-0.6,32.5-1.8,48.8-2.5c8.9-0.4,15-4.6,15.1-13.5
			c0.1-9.8-6.5-14.4-16-14.5c-5.8-0.1-11.6,0.4-17.4,0.6c-42.4,1.8-84.9,3.7-127.3,5.5c-89,3.6-177.9,7.3-266.9,10.7
			c-9.8,0.4-18.3,2.7-18.5,13.7C284.8,718.3,293.7,721.3,304.3,720.6z M296.7,629.1c31.4-1.4,62.8-2.8,94.2-4.2c0,0,0-0.1,0-0.1
			c80.8-3.1,161.6-6.1,242.5-9.2c23.8-0.9,47.7-2.2,71.5-3.1c9.4-0.4,16.2-4,16.4-14c0.2-10.2-6.6-14-16.1-14
			c-2.9,0-5.8,0.1-8.7,0.2c-133.7,5.5-267.4,11-401.2,16.3c-10.2,0.4-20.1,2.1-20,14.1C275.4,628.3,286,629.6,296.7,629.1z
			 M729.9,768c-4.4-1-9.2-0.6-13.9-0.4c-78.5,3.1-157,6.2-235.4,9.3c-55.8,2.2-111.6,4.6-167.4,6.8c-10.5,0.4-19.1,3.3-18.3,15.7
			c0.8,11.6,9.7,12.9,19.2,12.4c5.2-0.3,10.5-0.1,15.7-0.3c61.6-2.5,123.2-5.1,208.8-8.6c36.5-1.4,97-3.6,157.5-6
			c11-0.4,22.1-1.2,33.1-2.1c7.7-0.6,11.5-6.2,11.8-12.9C741.2,774.8,736.9,769.6,729.9,768z M758.5,301.1c-2.9-0.4-5.8-0.1-8.7-0.5
			c-11.8-1.9-27.4,7.8-34-0.2c-6.4-7.8-4-23.4-4.3-35.5c-0.3-12.1-7.7-15-17.2-14.7c-9.8,0.2-16.9,4.3-15.1,16.2
			c1.2,8,1.5,16.2,2.5,24.3c2.9,21.3,2.1,22.4-19.2,24.5c-2.9,0.3-5.8,0.6-8.7,0.3c-11.7-0.9-15.3,5.8-15.8,17.1
			c0.6,9.4,3.8,17.2,16.8,14.9c7.4-1.3,15-2,22.3-3.7c8.2-1.8,12.6-0.6,13.9,9.3c1.7,12.6,4,25.3,9.8,36.9c2.1,4.2,4.7,8.7,10.4,7.3
			c4.4-1.1,5.8-5.4,6.4-9.5c0.5-3.4,0.7-7,0.7-10.4c0.2-14.5-5-33,2-42.3c7-9.4,26.3-9.3,40-14c5.1-1.7,13-2.4,12.4-10
			C772.2,303.1,764.9,302,758.5,301.1z M453.2,416.7c10.3,0.7,24.5-8.7,29.9,2.4c4,8.3-1.6,21.4-3.3,32.3c-1.5,10.4-3.2,20.7-5.2,31
			c-1.4,7.1-0.5,13.8,1.7,20.6c2.1,6.5,5.8,11.9,12.6,13.2c7.9,1.5,13-3.7,17.2-9.7c4.9-6.9,6.3-15,7.8-23
			c2.9-15.4,5.6-30.9,7.7-46.5c4.3-32.5,2.9-25.2,34.8-27.5c14.9-6.6,20.6,5.2,26,20.8C589,449.9,598,469,606.7,488
			c2.7,5.9,4.5,15.8,13,13.8c9.6-2.3,4.7-11.7,4-18c-2.4-21.5-8.6-42.1-14.9-62.7c-3.2-10.4-4.3-15.8,9.6-15.9
			c9.1-0.1,18.2-3.5,27.2-5.8c5.2-1.3,11.4-3.7,11.6-9.2c0.3-7-7-8.5-12.4-10.2c-11.1-3.5-22.6-6.5-34.3-5.4
			c-13.1,1.2-18.2-5-21.8-16.6c-14.5-47.2-29.7-94.2-36-143.5c-1.5-11.9-7.9-19.6-21-18.4c-12.2,1.1-16,9.4-16.8,20.5
			c-3,39.5-8.5,78.6-14.7,117.7c-6.3,39.7-6.3,40.1-47.4,43.1c-12.7,0.9-14.8,8.4-13.4,17.4C440.6,403.5,437.7,415.7,453.2,416.7z
			 M534.3,355.7c3.2-11.7,3.6-24.1,5.9-41.1c7.7,22.2,13.9,40,20.4,58.7c-4.4,0.5-7.2,0.6-10,1.1C534.6,377.3,530,371.6,534.3,355.7
			z"/>
	</g>
</g>
</svg>
