<?xml version="1.0" encoding="utf-8"?>
<!-- Generator: Adobe Illustrator 18.0.0, SVG Export Plug-In . SVG Version: 6.00 Build 0)  -->
<!DOCTYPE svg PUBLIC "-//W3C//DTD SVG 1.1//EN" "http://www.w3.org/Graphics/SVG/1.1/DTD/svg11.dtd">
<svg version="1.1" id="图层_1" xmlns="http://www.w3.org/2000/svg" xmlns:xlink="http://www.w3.org/1999/xlink" x="0px" y="0px"
	 viewBox="0 0 200 200" enable-background="new 0 0 200 200" xml:space="preserve">
<g>
	<g transform="scale(0.1953125, 0.1953125)">
		<path fill="#FFFFFF" d="M652.1,763.5c0-91.2,51.1-167.9,120.5-190.1c-4.3-3.3-10-4.3-15.3-1.6L527.7,688.4
			c-10.4,5.2-20.9,5.2-31.3,0l-91.5-46.6l-136.1-69.1c-10.8-5.5-22.7,4.2-22.7,18.5v142c0,24.5,11.8,45.5,32,62.6
			c74.4,63.8,262.2,77.6,385.8,41.6C656.3,814.6,652.1,789.6,652.1,763.5z M988.9,398L692.9,291.7l-169.5-60.9
			c-7.8-2.9-15.3-2.9-23,0L35.1,398c-13.9,4.9-14.7,28.2-1.6,34.8l82.5,41.8c3.8,2,6.1,6.3,6.1,11.4v137.5c0,2-0.6,3.5-2.1,4.2
			c-2.3,1.4-2.5,1.1-5-0.1c-11-6.3-14.4,15.5-14.5,24.5c-0.3,7.7,0.8,15.4,2.7,22.3c0.1,1.1-0.3,2-1.1,2c-7.6,1.1-8.4,13.7-0.8,15.7
			c1,0.3,1.3,1.5,0.8,2.3c-39.9,72.3-38.9,147.1,5.1,194.3c1.4,1.5,2.5,0.9,2.3-1.5c-0.5-6.3-0.9-12.3-1.1-18
			c-0.6-17.7,1.8-16,4.2-4c1.1,5.2,2.1,10.3,3.2,15.7c1.1,5.5,2.2,3.2,2.2-0.8c0.3-8.6,0.4-16.9,1-24.6c1.2-23.7,4.1-19.1,6.1,9.4
			c1,12.8,1.8,25.4,3.2,38.3c0.1,2.3,1.6,3.1,2.9,1.1c5.6-8.9,10.3-23.1,14.1-37.4c5.7-21.4,8.5-22,6.5,0.9
			c-0.5,6-1.2,12.2-2.1,18.6c-0.1,2.3,0.8,3.2,2.4,1.4c46.3-48.9,34.3-132.4,6.7-190.3c-0.5-1.1,0-2.2,0.8-2.3
			c6-1.8,6.5-13.7-0.4-15.5c-0.7-0.1-1.1-1.2-0.7-2.2c2.3-7.2,3.8-16.8,3.8-24.5c-0.1-10-1.8-28.8-13.6-20.3
			c-2.4,1.7-3.6,2.2-5.6-0.5c-0.8-0.9-1.1-2-1.1-3.1l0-122.8c0-8.9,7.3-14.9,14.1-11.4l261,132.6l79.7,40.3
			c10.4,5.4,20.8,5.4,31.3,0l462.8-235.1C1003.7,426.2,1002.6,402.9,988.9,398z M813,585.8c-81,0-146.7,79.9-146.7,178.4
			c0,98.5,65.7,178.4,146.7,178.4c81.1,0,146.7-79.8,146.7-178.4C959.8,665.7,894.1,585.8,813,585.8z M901.9,870.7
			c-2.8,3.4-6.4,5.1-10.1,5.1s-7.3-1.7-10.1-5.1l-40.3-49c-13.9,11.9-30.8,19.1-49.1,19.1c-47.2,0-85.5-46.5-85.5-103.9
			S745.1,633,792.3,633c47.2,0,85.5,46.5,85.5,103.9c0,22.6-6.1,43.3-16.1,60.3l40.2,48.9C907.4,852.9,907.4,863.9,901.9,870.7z
			 M739.7,737.2c0,35.4,23.6,64.1,52.7,64.1s52.7-28.7,52.7-64.1c0-35.4-23.6-64.1-52.7-64.1S739.7,701.8,739.7,737.2z"/>
	</g>
</g>
</svg>
