<?xml version="1.0" encoding="utf-8"?>
<!-- Generator: Adobe Illustrator 18.0.0, SVG Export Plug-In . SVG Version: 6.00 Build 0)  -->
<!DOCTYPE svg PUBLIC "-//W3C//DTD SVG 1.1//EN" "http://www.w3.org/Graphics/SVG/1.1/DTD/svg11.dtd">
<svg version="1.1" id="图层_1" xmlns="http://www.w3.org/2000/svg" xmlns:xlink="http://www.w3.org/1999/xlink" x="0px" y="0px"
	 viewBox="0 0 207 200" enable-background="new 0 0 207 200" xml:space="preserve">
<g>
	<g transform="scale(0.1953125, 0.1953125)">
		<path fill="#FFFFFF" d="M802.2,918.4L802.2,918.4c-6.8,7.6-18,7.6-24.9,0l-248.8-277c-6.8-7.6-6.8-20.1,0-27.7l0,0
			c6.8-7.6,18-7.6,24.9,0l248.8,277C809,898.4,809,910.8,802.2,918.4L802.2,918.4z M918.2,106H145.6C82.9,106,32,156.9,32,219.7
			v590.8c0,62.7,50.9,113.6,113.6,113.6h137.5c1.6,0.1,3.3,0.2,4.9,0.2h119.4c1.7,0,3.3-0.1,4.9-0.2h266.3
			c12.6,0,22.7-10.2,22.7-22.7c0-12.6-10.2-22.7-22.7-22.7H460.7c0.4-2.7,0.6-5.4,0.6-8.2v-5.8c0-29.6-24.3-53.9-53.9-53.9l-119.4,0
			c-29.6,0-53.9,24.3-53.9,53.9v5.8c0,2.8,0.2,5.5,0.6,8.2h-66.4c-50.2,0-90.9-40.7-90.9-90.9V242.4c0-50.2,40.7-90.9,90.9-90.9
			h727.1c50.2,0,90.9,40.7,90.9,90.9v545.3c0,50.2-40.7,90.9-90.9,90.9h-35c-12.6,0-22.7,10.2-22.7,22.7c0,12.6,10.2,22.7,22.7,22.7
			h57.8c62.7,0,113.6-50.9,113.6-113.6l0-590.8C1031.8,156.9,980.9,106,918.2,106L918.2,106z M296,369.3c0,12.5-10.2,22.7-22.7,22.7
			h-70.6c-12.5,0-22.7-10.2-22.7-22.7v-70.6c0-12.5,10.2-22.7,22.7-22.7h70.6c12.5,0,22.7,10.2,22.7,22.7V369.3z M490,369.3
			c0,12.5-10.2,22.7-22.7,22.7h-70.6c-12.5,0-22.7-10.2-22.7-22.7v-70.6c0-12.5,10.2-22.7,22.7-22.7h70.6
			c12.5,0,22.7,10.2,22.7,22.7L490,369.3L490,369.3z M696,369.3c0,12.5-10.2,22.7-22.7,22.7h-70.6c-12.5,0-22.7-10.2-22.7-22.7
			v-70.6c0-12.5,10.2-22.7,22.7-22.7h70.6c12.5,0,22.7,10.2,22.7,22.7V369.3z M898,369.3c0,12.5-10.2,22.7-22.7,22.7h-70.6
			c-12.5,0-22.7-10.2-22.7-22.7v-70.6c0-12.5,10.2-22.7,22.7-22.7h70.6c12.5,0,22.7,10.2,22.7,22.7V369.3z M490,535.3
			c0,12.5-10.2,22.7-22.7,22.7h-70.6c-12.5,0-22.7-10.2-22.7-22.7v-70.6c0-12.5,10.2-22.7,22.7-22.7h70.6
			c12.5,0,22.7,10.2,22.7,22.7V535.3z M288.9,534.8c0,12.5-10.2,22.7-22.7,22.7h-70.6c-12.5,0-22.7-10.2-22.7-22.7v-70.6
			c0-12.5,10.2-22.7,22.7-22.7h70.6c12.5,0,22.7,10.2,22.7,22.7V534.8z"/>
	</g>
</g>
</svg>
