<?xml version="1.0" encoding="utf-8"?>
<!-- Generator: Adobe Illustrator 19.0.0, SVG Export Plug-In . SVG Version: 6.00 Build 0)  -->
<svg version="1.1" id="图层_1" xmlns="http://www.w3.org/2000/svg" xmlns:xlink="http://www.w3.org/1999/xlink" x="0px" y="0px"
	 viewBox="12.7 181 562.7 152" style="enable-background:new 12.7 181 562.7 152;" xml:space="preserve">
<style type="text/css">
	.st0{fill:#E77817;}
	.st1{fill:#4FB3E5;}
	.st2{fill:#DA251D;}
	.st3{fill:#84C225;}
</style>
<g id="图层_x0020_1">
	<g id="_195307296">
		<path id="_195308472" class="st0" d="M117.7,193.4h49.2c8.8,0,15.9,7.2,15.9,15.9v31.8c0,7.9-5.9,14.5-13.5,15.7l2.8,18.1
			L147.6,257h-16.5c-1.2-2.8-2.4-5.6-3.6-8.4h33.9c6.4,0,11.7-5.3,11.7-11.7v-23.4c0-6.4-5.3-11.7-11.7-11.7h-47h0
			C115,198.9,116,196.1,117.7,193.4L117.7,193.4z"/>
		<path id="_195308544" class="st1" d="M61.3,333c20.2,0,33.2,0,53.4,0c5.8-8.1,9.5-16,11.5-23.6c-14-5.5-28.3-13-40.5-21.6
			C84.1,302.1,77.6,317.3,61.3,333L61.3,333z M128.1,288.3c-3.4-44.7-49.8-80.2-9.1-107.3c-59.2,16.3-42.2,44-35.2,78.2
			c4.3,4.1,9.1,8.2,14.7,12C107.3,277.3,117.8,283.3,128.1,288.3z"/>
		<path id="_195307704" class="st2" d="M61,252.9H28.3c-8.6,0-15.6,7-15.6,15.6v31.3c0,7.8,5.8,14.3,13.2,15.4L23.2,333l24.2-17.6
			h16.8c1.7-2.8,3.2-5.5,4.5-8.2H33.8c-6.3,0-11.5-5.2-11.5-11.5v-23c0-6.3,5.2-11.5,11.5-11.5h27.6c0.5,0,1,0,1.5,0.1
			C62.3,258.4,61.7,255.6,61,252.9z"/>
		<path id="_195307488" class="st3" d="M74,194.3c0,0-9.5,7.4-8.3,18.7c-20.5-1.6-13.3,37.5,25.6,64.3c35.4,24.4,96.5,48,75.2,2.9
			c56.3,67.7-39.6,49.9-91.3,11.2C8.4,241.3,17.7,182.1,74,194.3L74,194.3z"/>
		<path id="_195307920" class="st1" d="M291.4,237c0-8.9-5.7-13.4-17.1-13.4h-16.9c-11.4,0-17.1,4.5-17.1,13.6v48.4v7.5h40h11
			L291.4,237L291.4,237z M257.4,238.4h8.4c5.7,0,8.5,2.9,8.5,8.6v31.3h-2.8h-14.1L257.4,238.4L257.4,238.4z M213.2,218.2v83.2H232
			v-83.1L213.2,218.2L213.2,218.2z M217.3,204c0-2.6,1-4.8,2.9-6.7c1.9-1.9,4.2-2.8,7-2.8c2.7,0,4.9,0.9,6.8,2.8
			c1.9,1.9,2.9,4.1,2.9,6.7c0,2.6-1,4.9-2.9,6.7c-1.9,1.9-4.2,2.8-6.8,2.8c-2.7,0-5-0.9-7-2.8C218.2,208.9,217.3,206.7,217.3,204z
			 M318.7,290.7v-76.2c-0.2-12.7-6.6-19.1-19.3-19.1H244v14.9h43.6c8,0,12,3.4,12,10.1v80.9h7.8
			C314.8,301.4,318.6,297.8,318.7,290.7z M396.9,224.8c-3.5,12.2-11.7,23.8-24.7,34.9l0.1,23.2c17.9-12.9,30-25.9,36.4-38.9
			c6.4,13.2,18.7,26.3,36.8,39.4v-23.8c-12.4-9.9-21.7-21.5-27.9-34.9h28.3v-14.9h-28.7v-15.5h-18.5v15.5h-29.2v14.9L396.9,224.8
			L396.9,224.8z M364.7,280.3v-46.5c-0.1-8-3.8-12-11-12h-12.9v14.7h6v65.1h8.8c6,0,9.1-2.2,9.1-6.7c2.3,3.8,5.6,6,9.8,6.7h62.7
			c7,0.1,10.5-2.9,10.5-8.9v-6.2h-78.2C366.7,285.6,365,283.5,364.7,280.3z M343.8,205.6c0-2.7,1-5.1,3.1-7.1c2-2,4.4-3,7.3-3
			c2.7,0,5.1,1,7.1,3c2,2,3.1,4.4,3.1,7.1c0,2.8-1,5.2-3.1,7.2c-2,2-4.4,3-7.1,3c-2.8,0-5.2-1-7.3-3
			C344.8,210.8,343.8,208.4,343.8,205.6z M482.2,219.2h77.9c9.2-0.1,13.8-3.6,13.8-10.4v-10.3h-18.7l0.1,7.3h-25.2v-11.2h-18.9v11.2
			h-24.4v-7.3h-18.5v9.5C468.4,215.5,473,219.2,482.2,219.2L482.2,219.2z M486.4,239.5h89v-14.7h-91.8c-10,0-15,5.4-15,16.1v60.4
			c11.6,0.7,17.5-1.7,17.8-7.3V239.5z M523.1,272.4h-31.9v14.7h20.7c7.4,0,11.1,2.4,11.1,7.3v7.1h19.3v-14.4h30.5v-14.7h-30.5v-11.7
			h28.2v-14.4h-76.6v14.4h18c7.4,0,11.1,1.9,11.1,5.8L523.1,272.4L523.1,272.4z"/>
		<path id="_195307896" class="st0" d="M242.9,314.4l-6,18.1h-6.2l-3.4-12l-3.6,12h-6.2l-6.2-18.1h5.6l3.7,12.4l3.7-12.4h5.7
			l3.5,12.9l3.6-12.9H242.9z M275,314.4l-6,18.1h-6.2l-3.4-12l-3.6,12h-6.2l-6.2-18.1h5.6l3.7,12.4l3.7-12.4h5.7l3.5,12.9l3.6-12.9
			H275L275,314.4z M307.1,314.4l-6,18.1h-6.2l-3.4-12l-3.6,12h-6.2l-6.2-18.1h5.6l3.7,12.4l3.7-12.4h5.7l3.5,12.9l3.6-12.9H307.1
			L307.1,314.4z M315.6,332.6h-4.9v-4.4h4.9V332.6z M342.3,323.4c0,3.1-1,5.6-3,7.2c-1.8,1.5-4.3,2.3-7.5,2.3
			c-3.2,0-5.6-0.7-7.4-2.1c-2-1.6-3-4.1-3-7.5c0-2.8,1.1-5.1,3.3-6.7c2-1.5,4.4-2.2,7.2-2.2c3.1,0,5.7,0.8,7.6,2.4
			C341.3,318.4,342.3,320.6,342.3,323.4L342.3,323.4z M336.9,323.4c0-1.5-0.5-2.7-1.4-3.7c-0.9-1-2.2-1.5-3.8-1.5
			c-1.4,0-2.6,0.5-3.6,1.5c-0.9,1-1.4,2.3-1.4,3.8c0,1.8,0.5,3.2,1.4,4.2c1,1,2.2,1.6,3.7,1.6c1.7,0,3-0.5,3.8-1.6
			C336.5,326.7,336.9,325.3,336.9,323.4L336.9,323.4z M364.7,332.6h-4.9v-11.9c0-0.3-0.1-0.6-0.2-0.8c-0.1-0.2-0.3-0.5-0.6-0.7
			c-0.5-0.4-1-0.6-1.6-0.6h-4.8v14h-4.9v-18.1h9.3c1.7,0,2.9,0.1,3.6,0.3c1.2,0.3,2.1,0.9,2.8,1.9c0.8,1.1,1.2,2.3,1.2,3.7
			L364.7,332.6L364.7,332.6z M386.5,332.7H378c-2.1,0-3.9-0.9-5.4-2.7c-1.5-1.8-2.3-3.8-2.3-6.2c0-2.5,0.8-4.7,2.5-6.6
			c1.7-1.9,3.5-2.8,5.6-2.8h8.1v3.7h-5.9c-0.7,0-1.4,0.1-1.9,0.2c-0.5,0.1-1,0.4-1.5,0.8c-0.8,0.7-1.2,1.6-1.2,2.8h10.5v3.8H376
			c0,0.6,0.1,1,0.2,1.4c0.1,0.4,0.4,0.8,0.8,1.2c0.4,0.4,0.9,0.6,1.4,0.8c0.6,0.1,1.2,0.2,2,0.2h6.1L386.5,332.7L386.5,332.7z
			 M410.8,332.6h-11.4c-2.2,0-4-1-5.5-2.9c-1.3-1.8-2-3.9-2-6.4c0-2.4,0.7-4.4,2.2-6.2c1.5-1.7,3.4-2.6,5.6-2.6h6.3v-6.4h4.7V332.6z
			 M406,328.6v-10.3h-4.5c-1.3,0-2.3,0.5-3.1,1.5c-0.8,1-1.2,2.2-1.2,3.6c0,1.4,0.4,2.6,1.1,3.7c0.7,1.1,1.7,1.6,3,1.6H406z
			 M434.8,332.6h-13.1c-1.5,0-2.7-0.5-3.8-1.5c-1-1-1.6-2.2-1.6-3.8c0-1.6,0.5-2.9,1.4-3.9c0.9-1,2.1-1.6,3.5-1.6h8.4v-1
			c0-0.3-0.1-0.6-0.2-0.8s-0.3-0.5-0.5-0.8c-0.3-0.4-0.7-0.6-1-0.7c-0.3-0.1-0.8-0.2-1.5-0.2h-9v-4h7.8h1.5c1.7,0,3,0.1,3.8,0.4
			c0.8,0.3,1.6,0.7,2.2,1.3c0.8,0.8,1.3,1.6,1.5,2.5c0.3,0.9,0.4,2.1,0.4,3.5V332.6L434.8,332.6z M429.8,328.9v-3.6h-6.2
			c-0.6,0-1.1,0.2-1.5,0.5c-0.4,0.3-0.6,0.8-0.6,1.3c0,0.5,0.2,0.9,0.6,1.2c0.4,0.3,0.8,0.5,1.4,0.5H429.8L429.8,328.9z
			 M458.7,332.6h-13.1c-1.5,0-2.7-0.5-3.8-1.5c-1-1-1.6-2.2-1.6-3.8c0-1.6,0.5-2.9,1.4-3.9c0.9-1,2.1-1.6,3.5-1.6h8.4v-1
			c0-0.3-0.1-0.6-0.2-0.8s-0.3-0.5-0.5-0.8c-0.3-0.4-0.7-0.6-1-0.7c-0.3-0.1-0.8-0.2-1.5-0.2h-9v-4h7.8h1.5c1.7,0,3,0.1,3.8,0.4
			c0.8,0.3,1.6,0.7,2.2,1.3c0.8,0.8,1.3,1.6,1.5,2.5c0.3,0.9,0.4,2.1,0.4,3.5L458.7,332.6L458.7,332.6z M453.7,328.9v-3.6h-6.2
			c-0.6,0-1.1,0.2-1.5,0.5c-0.4,0.3-0.6,0.8-0.6,1.3c0,0.5,0.2,0.9,0.6,1.2c0.4,0.3,0.8,0.5,1.4,0.5H453.7L453.7,328.9z
			 M481.8,332.6h-4.9v-11.9c0-0.3-0.1-0.6-0.2-0.8c-0.1-0.2-0.3-0.5-0.6-0.7c-0.5-0.4-1-0.6-1.6-0.6h-4.8v14h-4.9v-18.1h9.3
			c1.7,0,2.9,0.1,3.6,0.3c1.2,0.3,2.1,0.9,2.8,1.9c0.8,1.1,1.2,2.3,1.2,3.7V332.6L481.8,332.6z M493.1,332.6h-4.9v-4.4h4.9V332.6z
			 M515.6,332.6H508c-2.8,0-5-0.8-6.7-2.5c-1.6-1.6-2.4-3.8-2.4-6.5c0-2.6,0.8-4.7,2.3-6.4c1.7-1.8,3.9-2.7,6.8-2.7h7.6v4.2h-6.9
			c-1.3,0-2.4,0.5-3.3,1.5c-0.9,1-1.4,2.2-1.4,3.5c0,1.4,0.4,2.5,1.3,3.5c0.9,1,1.9,1.5,3.2,1.5h7V332.6L515.6,332.6z M541.6,323.4
			c0,3.1-1,5.6-3,7.2c-1.8,1.5-4.3,2.3-7.5,2.3c-3.2,0-5.6-0.7-7.4-2.1c-2-1.6-3-4.1-3-7.5c0-2.8,1.1-5.1,3.3-6.7
			c2-1.5,4.4-2.2,7.2-2.2c3.1,0,5.7,0.8,7.6,2.4C540.6,318.4,541.6,320.6,541.6,323.4L541.6,323.4z M536.2,323.4
			c0-1.5-0.5-2.7-1.4-3.7c-0.9-1-2.2-1.5-3.8-1.5c-1.4,0-2.6,0.5-3.6,1.5c-0.9,1-1.4,2.3-1.4,3.8c0,1.8,0.5,3.2,1.4,4.2
			c1,1,2.2,1.6,3.7,1.6c1.7,0,3-0.5,3.8-1.6C535.8,326.7,536.2,325.3,536.2,323.4L536.2,323.4z M573.1,332.6h-4.7v-11.4
			c0-0.4,0-0.8-0.1-1c-0.1-0.3-0.3-0.5-0.6-0.8c-0.3-0.3-0.6-0.5-0.8-0.6c-0.3-0.1-0.6-0.2-1-0.2h-3.5v14h-4.8v-14.2H552v14.2h-4.9
			v-18.1h19.4c1.2,0,2.2,0.1,2.9,0.3c0.7,0.2,1.4,0.7,2.1,1.4c0.5,0.6,0.9,1.2,1.2,1.7c0.3,0.6,0.4,1.2,0.4,1.8L573.1,332.6
			L573.1,332.6z"/>
	</g>
</g>
</svg>
